HIERARCHY
ROOT Hips
{
	OFFSET 0.000000 8.830580 0.000000
	CHANNELS 6 Xposition Yposition Zposition Zrotation Yrotation Xrotation 
	JOINT Spine
	{
		OFFSET 0.000000 0.010000 0.000000
		CHANNELS 3 Zrotation Yrotation Xrotation
		JOINT Spine1
		{
			OFFSET 0.000000 2.459130 0.000000
			CHANNELS 3 Zrotation Yrotation Xrotation
			JOINT Neck
			{
				OFFSET 0.000000 2.484630 0.000000
				CHANNELS 3 Zrotation Yrotation Xrotation
				JOINT Head_virtual
				{
					OFFSET 0.000000 0.000000 0.000000
					CHANNELS 3 Zrotation Yrotation Xrotation
					JOINT Head
					{
						OFFSET 0.000000 0.927525 0.000000
						CHANNELS 3 Zrotation Yrotation Xrotation
						End Site
						{
							OFFSET 0.000000 0.000000 0.000000
						}
					}
				}
				JOINT LeftUpArm_virtual
				{
					OFFSET 0.000000 0.000000 0.000000
					CHANNELS 3 Zrotation Yrotation Xrotation
					JOINT LeftUpArm
					{
						OFFSET 1.248820 0.000000 0.000000
						CHANNELS 3 Zrotation Yrotation Xrotation
						JOINT LeftForeArm
						{
							OFFSET 2.597580 0.000000 0.000000
							CHANNELS 3 Zrotation Yrotation Xrotation
							JOINT LeftHand
							{
								OFFSET 2.455420 0.000000 0.000000
								CHANNELS 3 Zrotation Yrotation Xrotation
								End Site
								{
									OFFSET 0.000000 0.000000 0.000000
								}
							}
						}
					}
				}
				JOINT RightUpArm_virtual
				{
					OFFSET -0.000000 -0.000000 -0.000000
					CHANNELS 3 Zrotation Yrotation Xrotation
					JOINT RightUpArm
					{
						OFFSET -1.248820 -0.000000 -0.000000
						CHANNELS 3 Zrotation Yrotation Xrotation
						JOINT RightForeArm
						{
							OFFSET -2.597580 -0.000000 -0.000000
							CHANNELS 3 Zrotation Yrotation Xrotation
							JOINT RightHand
							{
								OFFSET -2.455420 -0.000000 -0.000000
								CHANNELS 3 Zrotation Yrotation Xrotation
								End Site
								{
									OFFSET 0.000000 0.000000 0.000000
								}
							}
						}
					}
				}
			}
		}
	}
	JOINT LeftUpLeg
	{
		OFFSET 1.271939 0.000000 0.000000
		CHANNELS 3 Zrotation Yrotation Xrotation
		JOINT LeftLowLeg
		{
			OFFSET 0.000000 -4.342910 0.000000
			CHANNELS 3 Zrotation Yrotation Xrotation
			JOINT LeftFoot
			{
				OFFSET 0.000000 -4.487670 0.000000
				CHANNELS 3 Zrotation Yrotation Xrotation
				JOINT LeftToeBase
				{
					OFFSET 0.000000 0.000000 1.515070
					CHANNELS 3 Zrotation Yrotation Xrotation
					End Site
					{
						OFFSET 0.000000 0.000000 0.000000
					}
				}
			}
		}
	}
	JOINT RightUpLeg
	{
		OFFSET -1.271939 0.000000 0.000000
		CHANNELS 3 Zrotation Yrotation Xrotation
		JOINT RightLowLeg
		{
			OFFSET 0.000000 -4.342910 0.000000
			CHANNELS 3 Zrotation Yrotation Xrotation
			JOINT RightFoot
			{
				OFFSET 0.000000 -4.487670 0.000000
				CHANNELS 3 Zrotation Yrotation Xrotation
				JOINT RightToeBase
				{
					OFFSET 0.000000 0.000000 1.515070
					CHANNELS 3 Zrotation Yrotation Xrotation
					End Site
					{
						OFFSET 0.000000 0.000000 0.000000
					}
				}
			}
		}
	}
}
MOTION
Frames: 13
Frame Time: 0.041667
-18.131213 9.021052 35.311668 -175.563658 -3.489595 -159.297651 4.510344 1.693123 -29.878670 -2.969519 -0.298654 5.910740 0.000000 0.000000 0.000000 13.196406 4.667802 6.371744 -12.691406 -6.792711 -70.116024 -29.862499 1.407220 7.752000 -43.782600 0.162121 3.321991 0.000000 -9.075730 0.000000 6.329320 9.333290 28.644012 31.855801 -4.897750 1.683500 45.289398 -1.405630 16.731001 0.000000 17.897699 0.000000 1.670090 -5.521930 10.326100 6.704317 -11.778729 -16.639329 0.000000 0.000000 3.135640 -3.471987 21.762003 -3.346760 0.000000 0.000000 -11.278590 -1.288257 27.204033 -18.564160 0.000000 0.000000 3.251600 4.294519 -29.615097 3.613224 0.000000 0.000000 -17.772130 
-18.131962 9.021407 35.308941 -175.568041 -3.599851 -159.315624 4.390047 1.554575 -30.300823 -2.627279 -0.093022 6.737299 0.000000 0.000000 0.000000 13.028934 4.638879 5.842388 -12.628654 -6.821084 -70.089031 -29.946699 1.177790 7.429000 -44.025501 0.215966 3.290985 0.000000 -9.305490 0.000000 6.333780 9.765280 28.377014 31.670700 -4.811900 1.268370 45.393299 -1.428030 16.722300 0.000000 17.921801 0.000000 1.622790 -5.597420 10.442300 6.717349 -11.830698 -16.614630 0.000000 0.000000 3.107500 -3.525240 21.689529 -3.330002 0.000000 0.000000 -11.321890 -1.236256 27.117630 -18.473133 0.000000 0.000000 3.186320 4.262110 -29.636516 3.630108 0.000000 0.000000 -17.759210 
-18.132961 9.021619 35.307965 -175.578092 -3.694347 -159.304996 4.357927 1.547516 -30.343132 -2.559402 -0.038367 6.795591 0.000000 0.000000 0.000000 12.951236 4.672119 5.795878 -12.588258 -6.881180 -70.132429 -29.975000 1.185130 7.335970 -44.191200 0.272845 3.126007 0.000000 -9.590920 0.000000 6.401290 10.104800 27.518005 31.654301 -4.789540 1.240410 45.395802 -1.448910 16.805300 0.000000 17.927900 0.000000 1.618660 -5.646130 10.111400 6.729456 -11.881375 -16.643605 0.000000 0.000000 3.111070 -3.427094 21.681182 -3.287615 0.000000 0.000000 -11.298600 -1.216493 27.034543 -18.446004 0.000000 0.000000 3.158060 4.279288 -29.635805 3.623175 0.000000 0.000000 -17.746650 
-18.133931 9.021450 35.306756 -175.578456 -3.803139 -159.304637 4.340881 1.550806 -30.357191 -2.512115 -0.005407 6.801520 0.000000 0.000000 0.000000 12.860673 4.726201 5.779669 -12.520518 -6.944974 -70.155224 -29.979601 1.197230 7.300670 -44.384899 0.255865 2.696991 0.000000 -9.905740 0.000000 6.483430 10.304800 26.743011 31.603100 -4.767450 1.247180 45.467899 -1.473380 16.821100 0.000000 17.929300 0.000000 1.594980 -5.526740 10.038700 6.756438 -11.958000 -16.666260 0.000000 0.000000 3.117180 -3.476212 21.648432 -3.297198 0.000000 0.000000 -11.319010 -1.179740 26.953614 -18.404917 0.000000 0.000000 3.125640 4.264451 -29.656167 3.623794 0.000000 0.000000 -17.776060 
-18.134719 9.021381 35.305197 -175.596567 -3.925081 -159.318350 4.314733 1.537069 -30.366878 -2.476319 0.024829 6.801031 0.000000 0.000000 0.000000 12.801748 4.753196 5.781765 -12.488694 -6.992938 -70.157547 -29.991600 1.208810 7.280030 -44.535999 0.201436 2.382996 0.000000 -10.290800 0.000000 6.397250 10.410200 25.843994 31.588200 -4.741520 1.259350 45.494499 -1.471800 16.948700 0.000000 17.962601 0.000000 1.632840 -5.713440 9.867890 6.753413 -11.992948 -16.676676 0.000000 0.000000 3.129590 -3.382207 21.604118 -3.264989 0.000000 0.000000 -11.278110 -1.142475 26.858689 -18.342762 0.000000 0.000000 3.100020 4.284580 -29.675269 3.589823 0.000000 0.000000 -17.741710 
-18.134766 9.021385 35.304337 -175.588877 -4.000681 -159.310548 4.305006 1.569222 -30.362788 -2.464752 0.058809 6.747654 0.000000 0.000000 0.000000 12.774812 4.780442 5.828992 -12.497667 -7.015265 -70.163129 -30.017200 1.203970 7.285950 -44.625599 0.098120 2.204010 0.000000 -10.663200 0.000000 6.307500 10.502000 24.733002 31.590700 -4.724830 1.307110 45.526199 -1.460520 16.942200 0.000000 18.004801 0.000000 1.698610 -5.713020 9.972650 6.793726 -12.060309 -16.690094 0.000000 0.000000 3.112150 -3.469738 21.573632 -3.276347 0.000000 0.000000 -11.325830 -1.107525 26.803501 -18.334530 0.000000 0.000000 3.101400 4.281864 -29.687063 3.589669 0.000000 0.000000 -17.766910 
-18.135187 9.021313 35.302749 -175.602698 -4.100643 -159.319510 4.293684 1.579084 -30.378954 -2.483851 0.079717 6.738807 0.000000 0.000000 0.000000 12.767551 4.799557 5.856257 -12.511435 -7.006991 -70.143821 -30.006599 1.191470 7.287490 -44.713699 -0.062618 2.289001 0.000000 -11.057500 0.000000 6.121620 10.598800 23.589996 31.613701 -4.704500 1.339200 45.552502 -1.428490 17.002300 0.000000 18.034201 0.000000 1.691170 -5.705920 10.172400 6.799373 -12.103651 -16.693694 0.000000 0.000000 3.109050 -3.411513 21.537988 -3.255109 0.000000 0.000000 -11.278220 -1.080179 26.737594 -18.293063 0.000000 0.000000 3.092810 4.285797 -29.717303 3.561030 0.000000 0.000000 -17.741330 
-18.135944 9.021255 35.301100 -175.610978 -4.161127 -159.340450 4.296337 1.619696 -30.401231 -2.522933 0.105044 6.762782 0.000000 0.000000 0.000000 12.748116 4.835537 5.866808 -12.513117 -6.991261 -70.119552 -30.014400 1.140650 7.308020 -44.753201 -0.269618 2.621002 0.000000 -11.488200 0.000000 6.177440 10.705900 23.292999 31.613501 -4.686470 1.361800 45.612202 -1.391170 17.088699 0.000000 18.074800 0.000000 1.607140 -5.550370 10.025600 6.792083 -12.127187 -16.669077 0.000000 0.000000 3.098170 -3.374936 21.519276 -3.236305 0.000000 0.000000 -11.264070 -1.062413 26.714591 -18.249170 0.000000 0.000000 3.089420 4.304970 -29.742708 3.537505 0.000000 0.000000 -17.754050 
-18.137180 9.021176 35.297843 -175.623408 -4.189892 -159.362201 4.305735 1.671625 -30.468644 -2.579083 0.135433 6.836449 0.000000 0.000000 0.000000 12.752273 4.844907 5.870319 -12.536519 -6.962129 -70.077405 -30.016701 1.071960 7.312850 -44.749699 -0.493341 3.248993 0.000000 -11.915200 0.000000 6.049100 10.675900 22.735992 31.622999 -4.674970 1.381840 45.672199 -1.294500 17.056101 0.000000 18.136900 0.000000 1.595690 -5.655990 10.376000 6.756968 -12.102887 -16.613613 0.000000 0.000000 3.065230 -3.327646 21.481419 -3.205043 0.000000 0.000000 -11.268500 -1.053554 26.702998 -18.187048 0.000000 0.000000 3.070080 4.322611 -29.752745 3.509396 0.000000 0.000000 -17.740440 
-18.136975 9.021225 35.294693 -175.627445 -4.196466 -159.378000 4.293581 1.686908 -30.550355 -2.566271 0.178408 6.918624 0.000000 0.000000 0.000000 12.713116 4.880825 5.879619 -12.551048 -6.961338 -70.036345 -30.070200 0.984324 7.352110 -44.601898 -0.645323 4.911987 0.000000 -12.633100 0.000000 6.171410 10.779800 22.337006 31.611799 -4.650370 1.384640 45.703098 -1.228370 17.166800 0.000000 18.203400 0.000000 1.628900 -5.622280 10.153700 6.739339 -12.078541 -16.550580 0.000000 0.000000 3.012840 -3.312319 21.457430 -3.184956 0.000000 0.000000 -11.283570 -1.059303 26.768379 -18.159490 0.000000 0.000000 3.077960 4.332720 -29.817402 3.482147 0.000000 0.000000 -17.731600 
-18.136668 9.021026 35.290731 -175.632962 -4.160095 -159.388014 4.279974 1.698989 -30.662632 -2.549560 0.226708 7.033285 0.000000 0.000000 0.000000 12.674099 4.901630 5.845693 -12.589695 -6.940023 -69.946622 -30.074200 0.880285 7.358760 -44.496700 -0.854752 6.619995 0.000000 -13.290800 0.000000 6.191150 10.812300 22.165009 31.594801 -4.604980 1.363670 45.751301 -1.180680 17.240900 0.000000 18.296900 0.000000 1.614170 -5.622920 9.963460 6.705235 -12.026253 -16.461931 0.000000 0.000000 2.930860 -3.316650 21.440386 -3.161802 0.000000 0.000000 -11.314070 -1.069713 26.829802 -18.136250 0.000000 0.000000 3.086160 4.337145 -29.837684 3.463016 0.000000 0.000000 -17.759660 
-18.136290 9.020990 35.291949 -175.614699 -4.442769 -159.437849 4.320398 1.578322 -30.608759 -2.549082 0.074106 6.968906 0.000000 0.000000 0.000000 12.640105 4.940979 5.898730 -12.619593 -6.950297 -69.928084 -30.125200 0.751955 7.439490 -44.277401 -1.113490 8.596985 0.000000 -13.959000 0.000000 5.952990 10.847700 22.354004 31.636900 -4.571650 1.384870 45.712502 -1.127590 17.409401 0.000000 18.449400 0.000000 1.531110 -5.663180 10.121000 6.825550 -12.253280 -16.544657 0.000000 0.000000 3.031710 -3.320423 21.401578 -3.191041 0.000000 0.000000 -11.275110 -0.907468 26.575965 -18.022838 0.000000 0.000000 3.052860 4.286116 -29.856447 3.486624 0.000000 0.000000 -17.781520 
-18.135336 9.021125 35.288428 -175.599058 -4.566625 -159.454765 4.343618 1.516695 -30.663500 -2.554812 0.000888 6.952810 0.000000 0.000000 0.000000 12.611606 4.975085 5.960411 -12.641088 -6.951540 -69.870884 -30.146000 0.634973 7.508240 -44.011398 -1.345320 10.622986 0.000000 -14.696300 0.000000 5.171820 10.830600 22.876007 31.632500 -4.559450 1.398720 45.763699 -1.076790 17.482500 0.000000 18.501200 0.000000 1.523450 -5.516420 10.255200 6.897937 -12.384184 -16.521244 0.000000 0.000000 2.996660 -3.347617 21.403400 -3.195056 0.000000 0.000000 -11.268210 -0.794157 26.428187 -17.919902 0.000000 0.000000 2.987910 4.158439 -29.858890 3.563771 0.000000 0.000000 -17.735830 
